<?xml version="1.0" encoding="utf-8"?>
<!-- Generator: Adobe Illustrator 23.0.0, SVG Export Plug-In . SVG Version: 6.00 Build 0)  -->
<!DOCTYPE svg PUBLIC "-//W3C//DTD SVG 1.1//EN" "http://www.w3.org/Graphics/SVG/1.1/DTD/svg11.dtd" [
	<!ENTITY ns_extend "http://ns.adobe.com/Extensibility/1.0/">
	<!ENTITY ns_ai "http://ns.adobe.com/AdobeIllustrator/10.0/">
	<!ENTITY ns_graphs "http://ns.adobe.com/Graphs/1.0/">
	<!ENTITY ns_vars "http://ns.adobe.com/Variables/1.0/">
	<!ENTITY ns_imrep "http://ns.adobe.com/ImageReplacement/1.0/">
	<!ENTITY ns_sfw "http://ns.adobe.com/SaveForWeb/1.0/">
	<!ENTITY ns_custom "http://ns.adobe.com/GenericCustomNamespace/1.0/">
	<!ENTITY ns_adobe_xpath "http://ns.adobe.com/XPath/1.0/">
]>
<svg version="1.1" xmlns:x="&ns_extend;" xmlns:i="&ns_ai;" xmlns:graph="&ns_graphs;"
	 xmlns="http://www.w3.org/2000/svg" xmlns:xlink="http://www.w3.org/1999/xlink" x="0px" y="0px" width="500px" height="500px"
	 viewBox="0 0 500 500" style="enable-background:new 0 0 500 500;" xml:space="preserve">
<style type="text/css">
	.st0{fill:#EBEBEB;}
	.st1{fill:#E6E6E6;}
	.st2{fill:#F0F0F0;}
	.st3{fill:#FAFAFA;}
	.st4{fill:#F5F5F5;}
	.st5{fill:#FFFFFF;}
	.st6{opacity:0.5;fill:#E0E0E0;}
	.st7{fill:#E0E0E0;}
	.st8{fill:#407BFF;}
	.st9{fill:#FE5B52;}
	.st10{opacity:0.2;fill:#407BFF;}
	.st11{opacity:0.1;fill:#407BFF;}
	.st12{opacity:0.2;fill:#FFFFFF;}
	.st13{opacity:0.6;fill:#407BFF;}
	.st14{opacity:0.8;fill:#FFFFFF;}
	.st15{opacity:0.6;fill:#FFFFFF;}
	.st16{opacity:0.4;fill:#FFFFFF;}
	.st17{fill:#FFB573;}
	.st18{fill:#263238;}
	.st19{opacity:0.5;fill:#FFFFFF;}
	.st20{fill:#FFB047;}
	.st21{fill:#ED893E;}
	.st22{opacity:0.2;}
</style>
<metadata>
	<sfw  xmlns="&ns_sfw;">
		<slices></slices>
		<sliceSourceBounds  bottomLeftOrigin="true" height="372.61" width="500" x="-5450" y="-5497.56"></sliceSourceBounds>
	</sfw>
</metadata>
<g id="Background_Complete">
	<g>
		<rect y="382.4" class="st0" width="500" height="0.25"/>
		<rect x="416.78" y="398.49" class="st0" width="33.12" height="0.25"/>
		<rect x="322.53" y="401.21" class="st0" width="8.69" height="0.25"/>
		<rect x="396.59" y="389.21" class="st0" width="19.19" height="0.25"/>
		<rect x="52.46" y="390.89" class="st0" width="43.19" height="0.25"/>
		<rect x="104.56" y="390.89" class="st0" width="6.33" height="0.25"/>
		<rect x="131.47" y="395.11" class="st0" width="93.68" height="0.25"/>
		<path class="st0" d="M237.01,337.8H43.92c-3.15,0-5.71-2.56-5.71-5.71V60.66c0-3.15,2.56-5.71,5.71-5.71h193.1
			c3.15,0,5.71,2.56,5.71,5.71v271.43C242.72,335.24,240.16,337.8,237.01,337.8z M43.92,55.2c-3.01,0-5.46,2.45-5.46,5.46v271.43
			c0,3.01,2.45,5.46,5.46,5.46h193.1c3.01,0,5.46-2.45,5.46-5.46V60.66c0-3.01-2.45-5.46-5.46-5.46H43.92z"/>
		<path class="st0" d="M453.31,337.8h-193.1c-3.15,0-5.71-2.56-5.71-5.71V60.66c0-3.15,2.56-5.71,5.71-5.71h193.1
			c3.15,0,5.71,2.56,5.71,5.71v271.43C459.02,335.24,456.46,337.8,453.31,337.8z M260.21,55.2c-3.01,0-5.46,2.45-5.46,5.46v271.43
			c0,3.01,2.45,5.46,5.46,5.46h193.1c3.01,0,5.46-2.45,5.46-5.46V60.66c0-3.01-2.45-5.46-5.46-5.46H260.21z"/>
	</g>
	<g>
		<g>
			
				<rect x="106.33" y="261.99" transform="matrix(-1 -1.224647e-16 1.224647e-16 -1 245.5532 644.3914)" class="st1" width="32.89" height="120.41"/>
			<polygon class="st2" points="114.09,382.4 106.33,382.4 106.33,360.33 122.23,360.33 			"/>
			
				<rect x="311.67" y="261.99" transform="matrix(-1 -1.224647e-16 1.224647e-16 -1 656.2203 644.3914)" class="st1" width="32.89" height="120.41"/>
			
				<rect x="106.33" y="261.99" transform="matrix(-1 -1.224647e-16 1.224647e-16 -1 424.7703 633.5255)" class="st2" width="212.1" height="109.54"/>
			<path class="st3" d="M209.03,269.18v87.35H113.1v-87.35H209.03 M209.78,268.43h-97.43v88.85h97.43V268.43L209.78,268.43z"/>
			<path class="st3" d="M311.67,269.18v87.35h-95.93v-87.35H311.67 M312.42,268.43h-97.43v88.85h97.43V268.43L312.42,268.43z"/>
			<ellipse class="st3" cx="229.88" cy="284.9" rx="6.9" ry="4.13"/>
			<ellipse class="st3" cx="194.89" cy="284.9" rx="6.9" ry="4.13"/>
			<polygon class="st2" points="310.68,382.4 318.44,382.4 318.44,360.33 302.54,360.33 			"/>
		</g>
		<g>
			<path class="st4" d="M214.16,248.01c0,0,0.6,13.98,23.42,13.98c22.82,0,23.42-13.98,23.42-13.98H214.16z"/>
		</g>
		<g>
			
				<rect x="273.11" y="75.07" transform="matrix(-1 -1.224647e-16 1.224647e-16 -1 723.3916 258.2718)" class="st1" width="177.18" height="108.14"/>
			
				<rect x="268.66" y="75.07" transform="matrix(-1 -1.224647e-16 1.224647e-16 -1 718.3181 258.2718)" class="st2" width="180.99" height="108.14"/>
			
				<rect x="273.11" y="183.21" transform="matrix(-1 -1.224647e-16 1.224647e-16 -1 723.3916 370.5383)" class="st1" width="177.18" height="4.13"/>
			
				<rect x="261.26" y="183.21" transform="matrix(-1 -1.224647e-16 1.224647e-16 -1 703.5136 370.5383)" class="st2" width="180.99" height="4.13"/>
			
				<rect x="311.31" y="44.86" transform="matrix(-1.836970e-16 1 -1 -1.836970e-16 488.295 -230.0231)" class="st3" width="95.7" height="168.55"/>
			<polygon class="st5" points="391.53,176.98 381.57,81.29 364.34,81.29 374.3,176.98 			"/>
			<path class="st2" d="M440.55,149.66c0.26,0,0.48-0.21,0.48-0.48V85.33c0-0.26-0.21-0.48-0.48-0.48c-0.26,0-0.48,0.21-0.48,0.48
				v63.85C440.08,149.45,440.29,149.66,440.55,149.66z"/>
			<polygon class="st5" points="370.6,176.98 360.63,81.29 353.91,81.29 363.88,176.98 			"/>
			
				<rect x="227.43" y="128.74" transform="matrix(-1.836970e-16 1 -1 -1.836970e-16 404.4151 -146.1432)" class="st1" width="95.7" height="0.79"/>
			<polygon class="st6" points="267.19,89.41 445.82,89.41 446.39,83.71 267.77,83.71 			"/>
			<polygon class="st6" points="267.19,98.78 445.82,98.78 446.39,93.08 267.77,93.08 			"/>
			<polygon class="st6" points="267.19,108.15 445.82,108.15 446.39,102.45 267.77,102.45 			"/>
			<polygon class="st6" points="267.19,117.52 445.82,117.52 446.39,111.82 267.77,111.82 			"/>
			<polygon class="st6" points="267.19,126.89 445.82,126.89 446.39,121.19 267.77,121.19 			"/>
			<polygon class="st6" points="267.19,136.26 445.82,136.26 446.39,130.56 267.77,130.56 			"/>
		</g>
		<g>
			<g>
				<g>
					<g>
						
							<rect x="122.7" y="77.9" transform="matrix(-1 -1.224647e-16 1.224647e-16 -1 353.3288 227.2561)" class="st7" width="107.94" height="71.46"/>
						
							<rect x="116.19" y="77.9" transform="matrix(-1 -1.224647e-16 1.224647e-16 -1 343.9787 227.2561)" class="st4" width="111.6" height="71.46"/>
						
							<rect x="148.78" y="67.18" transform="matrix(6.123234e-17 -1 1 6.123234e-17 58.3614 285.6175)" class="st5" width="46.42" height="92.9"/>
					</g>
				</g>
			</g>
			<g>
				<g>
					<g>
						
							<rect x="65.47" y="165.62" transform="matrix(-1 -1.224647e-16 1.224647e-16 -1 238.885 402.7065)" class="st7" width="107.94" height="71.46"/>
						
							<rect x="58.97" y="165.62" transform="matrix(-1 -1.224647e-16 1.224647e-16 -1 229.535 402.7065)" class="st4" width="111.6" height="71.46"/>
						
							<rect x="91.56" y="154.9" transform="matrix(6.123234e-17 -1 1 6.123234e-17 -86.5857 316.1208)" class="st5" width="46.42" height="92.9"/>
					</g>
				</g>
			</g>
		</g>
	</g>
</g>
<g id="Shadow">
	<ellipse id="_x3C_Path_x3E__229_" class="st4" cx="250" cy="416.24" rx="193.89" ry="11.32"/>
</g>
<g id="Smartphone">
	<g>
		<g>
			
				<rect x="422.84" y="172.42" transform="matrix(0.048 -0.9988 0.9988 0.048 233.7392 591.1013)" class="st8" width="8.28" height="1.02"/>
			
				<rect x="416.42" y="150.34" transform="matrix(0.0479 -0.9988 0.9988 0.0479 256.8319 571.1478)" class="st8" width="23.22" height="1.02"/>
			<path class="st8" d="M289.41,126.33h123.95c7.03,0,12.5,5.75,12.17,12.77l-12.56,264.36c-0.33,7.03-6.35,12.77-13.38,12.77
				H275.64c-7.03,0-12.5-5.75-12.17-12.77l12.56-264.36C276.36,132.08,282.38,126.33,289.41,126.33z"/>
			<path class="st9" d="M455.7,239.68l0.29-6.07l-3.72-1.08c-0.13-2.07-0.44-4.09-0.91-6.04l3.18-2.44l-2.06-5.61l-3.91,0.44
				c-0.91-1.8-1.98-3.51-3.18-5.12l2.06-3.43l-4.09-4.29l-3.51,1.9c-1.54-1.28-3.2-2.43-4.95-3.43l0.63-3.88l-5.5-2.32l-2.58,3.06
				c-1.93-0.56-3.93-0.97-5.99-1.2l-0.9-3.76h-6.07l-1.26,3.76c-2.08,0.23-4.12,0.64-6.1,1.2l-2.29-3.06l-5.72,2.32l0.26,3.88
				c-1.85,1-3.62,2.15-5.28,3.43l-3.34-1.9l-4.5,4.29l1.74,3.43c-1.35,1.6-2.59,3.31-3.67,5.12l-3.86-0.44l-2.59,5.61l2.95,2.44
				c-0.65,1.95-1.16,3.97-1.49,6.04l-3.82,1.08l-0.29,6.07l3.72,1.08c0.13,2.07,0.44,4.09,0.91,6.04l-3.18,2.44l2.06,5.61l3.91-0.44
				c0.91,1.8,1.98,3.51,3.18,5.11l-2.06,3.43l4.09,4.29l3.52-1.9c1.54,1.28,3.19,2.43,4.95,3.43l-0.63,3.88l5.5,2.32l2.58-3.06
				c1.92,0.56,3.92,0.97,5.98,1.2l0.9,3.76h6.07l1.26-3.76c2.08-0.23,4.12-0.64,6.1-1.2l2.29,3.06l5.72-2.32l-0.26-3.88
				c1.85-1,3.62-2.15,5.28-3.43l3.34,1.9l4.5-4.29l-1.74-3.43c1.35-1.6,2.58-3.31,3.67-5.12l3.87,0.44l2.59-5.61l-2.95-2.44
				c0.65-1.95,1.15-3.97,1.48-6.04L455.7,239.68z M441.59,236.64c-0.68,14.35-12.87,25.98-27.21,25.98
				c-14.35,0-25.43-11.63-24.74-25.98c0.68-14.34,12.87-25.98,27.22-25.98C431.2,210.66,442.27,222.3,441.59,236.64z"/>
			<path class="st5" d="M413.21,129.53H289.26c-5.29,0-9.78,4.29-10.04,9.58l-11.94,251.33c-0.09,1.83,1.33,3.31,3.15,3.31h136.49
				c1.83,0,3.38-1.48,3.47-3.31l11.94-251.33C422.59,133.81,418.5,129.53,413.21,129.53z"/>
			<path class="st10" d="M390.92,382.25H287.6c-3.07,0-5.91-1.2-8-3.39c-2.09-2.19-3.16-5.09-3.01-8.17l3.17-66.81
				c0.3-6.35,5.71-11.52,12.07-11.52h103.33c3.07,0,5.91,1.21,8,3.39c2.09,2.19,3.16,5.09,3.01,8.17l-3.17,66.81
				C402.69,377.08,397.27,382.25,390.92,382.25z M291.82,293.29c-5.87,0-10.87,4.77-11.14,10.64l-3.17,66.81
				c-0.13,2.82,0.85,5.48,2.76,7.49c1.91,2,4.51,3.11,7.33,3.11h103.33c5.87,0,10.87-4.77,11.14-10.64l3.17-66.81
				c0.13-2.82-0.85-5.48-2.76-7.49c-1.91-2-4.51-3.11-7.33-3.11H291.82z"/>
			<path class="st11" d="M309.44,298.03h-39.36l-3.26,68.54h39.36c4.48,0,8.32-3.66,8.53-8.14l2.48-52.25
				C317.41,301.69,313.92,298.03,309.44,298.03z"/>
			<path class="st11" d="M362.17,331.23h-26.76c-2.29,0-4.08-1.88-3.97-4.17l1.27-26.76c0.11-2.29,2.08-4.17,4.37-4.17h26.76
				c2.29,0,4.08,1.88,3.97,4.17l-1.27,26.76C366.43,329.35,364.46,331.23,362.17,331.23z"/>
			<path class="st11" d="M404.89,310.15c-3.29,0-6.12,2.7-6.27,5.99l-1.83,38.43c-0.16,3.29,2.41,5.99,5.71,5.99h11.36l2.4-50.41
				H404.89z"/>
			<path class="st11" d="M372.99,373.46h-26.76c-2.29,0-4.08-1.88-3.97-4.17l1.27-26.76c0.11-2.29,2.08-4.17,4.37-4.17h26.76
				c2.29,0,4.08,1.88,3.97,4.17l-1.27,26.76C377.25,371.58,375.28,373.46,372.99,373.46z"/>
			<path class="st12" d="M344.51,404.18c-0.17,3.49-3.13,6.33-6.63,6.33c-3.49,0-6.19-2.83-6.03-6.33c0.17-3.49,3.13-6.33,6.63-6.33
				S344.68,400.69,344.51,404.18z"/>
		</g>
		<path class="st10" d="M402.97,276.88H285.52c-2.22,0-3.93-1.8-3.82-4.02l3.5-73.74c0.11-2.22,1.99-4.02,4.21-4.02h117.45
			c2.22,0,3.93,1.8,3.82,4.02l-3.5,73.74C407.07,275.08,405.19,276.88,402.97,276.88z"/>
		<path class="st13" d="M409.29,177.46H288.65c-1.34,0-2.37-1.08-2.31-2.42l1.18-24.91c0.06-1.34,1.2-2.42,2.54-2.42H410.7
			c1.34,0,2.37,1.08,2.31,2.42l-1.18,24.91C411.76,176.37,410.63,177.46,409.29,177.46z"/>
		<g>
			<polygon class="st8" points="298.84,219.88 292.47,219.88 290.32,265.11 296.69,265.11 			"/>
			<polygon class="st8" points="310.87,236.52 304.5,236.52 303.14,265.11 309.51,265.11 			"/>
			<polygon class="st8" points="323.24,246.12 316.87,246.12 315.97,265.11 322.34,265.11 			"/>
			<polygon class="st8" points="335.62,255.62 329.24,255.62 328.79,265.11 335.16,265.11 			"/>
			<polygon class="st8" points="349.62,230.76 343.25,230.76 341.62,265.11 347.99,265.11 			"/>
			<polygon class="st8" points="363.32,212.41 356.94,212.41 354.44,265.11 360.81,265.11 			"/>
			<polygon class="st8" points="376.41,206.86 370.03,206.86 367.27,265.11 373.64,265.11 			"/>
			<polygon class="st8" points="388.16,229.48 381.78,229.48 380.09,265.11 386.46,265.11 			"/>
			<polygon class="st8" points="400.43,241 394.06,241 392.92,265.11 399.29,265.11 			"/>
		</g>
		<g>
			<path class="st8" d="M300.13,352.54h-52.25c-4.48,0-7.97-3.66-7.76-8.14l2.48-52.25c0.21-4.48,4.05-8.14,8.53-8.14h52.25
				c4.48,0,7.97,3.66,7.76,8.14l-2.48,52.25C308.44,348.88,304.6,352.54,300.13,352.54z"/>
			<path class="st14" d="M300.13,352.54h-52.25c-4.48,0-7.97-3.66-7.76-8.14l2.48-52.25c0.21-4.48,4.05-8.14,8.53-8.14h52.25
				c4.48,0,7.97,3.66,7.76,8.14l-2.48,52.25C308.44,348.88,304.6,352.54,300.13,352.54z"/>
			<path class="st5" d="M299.87,322.26l0.38-7.98l-3.72-2.46c-0.36-1.36-0.85-2.66-1.47-3.89l1.01-3.79l-5.38-5.64l-3.83,0.83
				c-1.2-0.67-2.47-1.23-3.81-1.65l-2.28-3.83h-7.98l-2.64,3.83c-1.38,0.43-2.71,0.98-3.97,1.65l-3.75-0.83l-5.91,5.64l0.65,3.79
				c-0.73,1.23-1.35,2.53-1.84,3.89l-3.95,2.46l-0.38,7.98l3.71,2.45c0.36,1.36,0.86,2.66,1.47,3.89l-1.01,3.79l5.38,5.64l3.83-0.83
				c1.2,0.67,2.47,1.23,3.81,1.65l2.28,3.84h7.98l2.64-3.84c1.38-0.42,2.7-0.98,3.96-1.65l3.76,0.83l5.91-5.64l-0.65-3.79
				c0.73-1.23,1.35-2.53,1.84-3.89L299.87,322.26z M275.17,327.85c-5.28,0-9.37-4.29-9.12-9.57c0.25-5.29,4.75-9.58,10.03-9.58
				c5.29,0,9.37,4.29,9.12,9.58C284.95,323.56,280.46,327.85,275.17,327.85z"/>
		</g>
		<g>
			<path class="st8" d="M355.62,319.11h-26.76c-2.29,0-4.08-1.88-3.97-4.17l1.27-26.76c0.11-2.29,2.08-4.17,4.37-4.17h26.76
				c2.29,0,4.08,1.88,3.97,4.17l-1.27,26.76C359.88,317.23,357.91,319.11,355.62,319.11z"/>
			<path class="st15" d="M355.62,319.11h-26.76c-2.29,0-4.08-1.88-3.97-4.17l1.27-26.76c0.11-2.29,2.08-4.17,4.37-4.17h26.76
				c2.29,0,4.08,1.88,3.97,4.17l-1.27,26.76C359.88,317.23,357.91,319.11,355.62,319.11z"/>
		</g>
		<g>
			<g>
				<path class="st8" d="M434.38,348.44h-38.43c-3.29,0-5.86-2.7-5.71-5.99l1.83-38.43c0.16-3.29,2.98-5.99,6.27-5.99h38.43
					c3.29,0,5.86,2.7,5.71,5.99l-1.83,38.43C440.5,345.75,437.67,348.44,434.38,348.44z"/>
				<path class="st16" d="M434.38,348.44h-38.43c-3.29,0-5.86-2.7-5.71-5.99l1.83-38.43c0.16-3.29,2.98-5.99,6.27-5.99h38.43
					c3.29,0,5.86,2.7,5.71,5.99l-1.83,38.43C440.5,345.75,437.67,348.44,434.38,348.44z"/>
			</g>
			<polygon class="st5" points="428.96,323.23 409.49,311.68 408.39,334.79 			"/>
		</g>
		<g>
			<g>
				<path class="st8" d="M366.44,361.33h-26.76c-2.29,0-4.08-1.88-3.97-4.17l1.27-26.76c0.11-2.29,2.08-4.17,4.37-4.17h26.76
					c2.29,0,4.08,1.88,3.97,4.17l-1.27,26.76C370.7,359.46,368.73,361.33,366.44,361.33z"/>
				<path class="st16" d="M366.44,361.33h-26.76c-2.29,0-4.08-1.88-3.97-4.17l1.27-26.76c0.11-2.29,2.08-4.17,4.37-4.17h26.76
					c2.29,0,4.08,1.88,3.97,4.17l-1.27,26.76C370.7,359.46,368.73,361.33,366.44,361.33z"/>
			</g>
			<polygon class="st5" points="350.62,354 341.12,344.02 343.33,341.92 350.73,349.68 364.85,336.2 366.95,338.41 			"/>
		</g>
	</g>
</g>
<g id="Character">
	<g>
		<path class="st17" d="M169.84,163.83c-0.05,5.72-1.04,16-5.64,18.88c0,0,2.47,7.52,11.48,11.65c9.48-2.9,5.6-8.14,5.6-8.14
			c-5.83-2.72-4.73-7.24-2.79-11.28L169.84,163.83z"/>
		<path class="st17" d="M164.05,193.9c1.31,4.73,2.74,9.57,4.21,14.28c0.75,2.36,1.55,4.69,2.39,6.97c0.83,2.29,1.73,4.52,2.72,6.57
			c0.49,1.01,1.01,1.98,1.52,2.76c0.13,0.18,0.26,0.4,0.37,0.53l0.17,0.23c0.06,0.08,0.2,0.23,0.29,0.35l1.25,1.48
			c1.62,1.99,3.24,3.96,4.8,5.98c3.15,4.01,6.19,8.11,9.08,12.33l-3.59,3.17c-3.84-3.37-7.55-6.86-11.18-10.41l-5.41-5.33
			l-1.33-1.33c-0.12-0.12-0.2-0.19-0.35-0.36l-0.44-0.5c-0.31-0.34-0.54-0.65-0.79-0.98c-0.97-1.28-1.71-2.52-2.41-3.75
			c-2.66-4.91-4.49-9.77-6.21-14.7c-1.72-4.93-3.17-9.82-4.46-14.91L164.05,193.9z"/>
		<path class="st18" d="M151.52,186.56c-3.98,5.84,1.1,20.26,1.1,20.26l17.93-0.01c0,0,0.16-11.92-2.33-16.52
			C165,184.35,154.1,182.76,151.52,186.56z"/>
		<path class="st17" d="M196.28,246.65l-6.92-2.03l-3.63,1.44c0.04,3.93,5.41,6.75,5.41,6.75l4.19,3.86
			c0.89,0.82,2.21,0.96,3.25,0.35l2.6-1.53c1.39-0.82,1.78-2.65,0.84-3.97l-1.13-1.58C199.77,248.35,198.14,247.2,196.28,246.65z"/>
		<g>
			<g>
				<path class="st18" d="M261.64,206.37l-9.22-9.22c-2.01-2.01-2.01-5.29,0-7.3l0,0c2.01-2.01,5.29-2.01,7.3,0l9.22,9.22
					c2.01,2.01,2.01,5.29,0,7.3l0,0C266.93,208.38,263.64,208.38,261.64,206.37z"/>
				<path class="st18" d="M249.61,209.94l-0.77-0.77c-1.63-1.63-1.63-4.3,0-5.94l5.95-5.95c1.63-1.63,4.3-1.63,5.94,0l0.77,0.77
					c1.63,1.63,1.63,4.3,0,5.94l-5.95,5.95C253.91,211.58,251.24,211.58,249.61,209.94z"/>
				<path class="st18" d="M169.15,298.25l-8.61-8.61c-1.02-1.02-1.01-2.69,0.03-3.69l87.65-84.57c1.02-0.98,2.63-0.97,3.63,0.03
					l5.53,5.53c1,1,1.01,2.61,0.03,3.63l-84.57,87.65C171.83,299.25,170.17,299.27,169.15,298.25z"/>
			</g>
			<g>
				<g>
					<path class="st8" d="M259.16,185.65c-2.11-3.01-3.89-6.17-5.34-9.44l2.37-49.96c0.01-0.34,0.04-0.67,0.07-1
						c1.06-11.73,10.87-21.29,22.57-22.08c0.52-0.04,1.06-0.06,1.59-0.06h51.91c3.04,1.63,5.98,3.56,8.75,5.79
						c1.6,1.28,3.15,2.67,4.64,4.16c8.18,8.18,13.33,18.22,15.46,28.77c3.66,18.01-1.49,37.45-15.47,51.42
						c-0.86,0.86-1.74,1.69-2.65,2.48c-22.26,19.63-56.25,18.81-77.54-2.48C263.15,190.86,261.03,188.32,259.16,185.65z"/>
					<path class="st5" d="M265.53,193.24c-2.38-2.38-4.51-4.92-6.37-7.59l2.82-59.4c0.45-9.59,8.59-17.36,18.17-17.36h60.94
						c1.6,1.28,3.15,2.67,4.64,4.16c8.18,8.18,13.33,18.22,15.46,28.77c3.66,18.01-1.49,37.45-15.47,51.42
						c-0.86,0.86-1.74,1.69-2.65,2.48C320.81,215.35,286.82,214.53,265.53,193.24z"/>
				</g>
				<path class="st13" d="M345.72,193.24c-0.86,0.86-1.74,1.69-2.65,2.48h-64.02c-2.42,0-4.3-1.96-4.18-4.39l2.15-45.12
					c0.12-2.42,2.17-4.39,4.59-4.39h79.59C364.85,159.84,359.69,179.28,345.72,193.24z"/>
			</g>
			<path class="st19" d="M265.53,193.25c-22.15-22.15-22.14-58.05,0-80.19c22.15-22.15,58.05-22.15,80.2-0.01
				c22.15,22.15,22.14,58.05-0.01,80.2C323.58,215.38,287.68,215.39,265.53,193.25z"/>
			<g>
				<path class="st18" d="M327.61,161.13c-8.22,8.22-17.58,7.55-23.76,1.37c-6.18-6.18-6.85-15.54,1.37-23.76
					c8.22-8.22,19.9-9.88,26.08-3.69C337.48,141.23,335.83,152.91,327.61,161.13z"/>
				<path class="st18" d="M325.33,141.03c-3.26-3.26-3.92-7.89-1.46-10.34c2.45-2.45,7.08-1.8,10.34,1.46
					c3.26,3.26,3.92,7.89,1.46,10.34C333.22,144.94,328.59,144.29,325.33,141.03z"/>
				<path class="st18" d="M322.72,144.89c-0.39,0-0.78-0.18-1.03-0.53l-10.35-14.43c-0.18-0.26-0.27-0.57-0.23-0.89l1.06-8.9
					c0.08-0.69,0.71-1.19,1.41-1.11c0.69,0.08,1.19,0.71,1.11,1.41l-1,8.41l10.06,14.03c0.41,0.57,0.28,1.36-0.29,1.77
					C323.24,144.82,322.98,144.89,322.72,144.89z"/>
				<path class="st18" d="M337.16,155.24c-0.26,0-0.52-0.08-0.74-0.24l-14.43-10.35c-0.57-0.41-0.7-1.2-0.29-1.77
					c0.41-0.57,1.2-0.7,1.77-0.29l14.03,10.06l8.41-1c0.7-0.09,1.32,0.41,1.41,1.11c0.08,0.69-0.41,1.32-1.11,1.41l-8.9,1.06
					C337.25,155.24,337.21,155.24,337.16,155.24z"/>
				<path class="st18" d="M314.46,153.15c-0.26,0-0.51-0.08-0.74-0.24l-14.03-10.06l-8.41,1c-0.7,0.09-1.32-0.41-1.41-1.11
					c-0.08-0.69,0.41-1.32,1.11-1.41l8.9-1.06c0.31-0.04,0.63,0.04,0.89,0.23l14.43,10.35c0.57,0.41,0.7,1.2,0.29,1.77
					C315.24,152.97,314.86,153.15,314.46,153.15z"/>
				<path class="st18" d="M323.76,176.48c-0.05,0-0.1,0-0.15-0.01c-0.69-0.08-1.19-0.71-1.11-1.41l1-8.41l-10.06-14.03
					c-0.41-0.57-0.28-1.36,0.29-1.77c0.57-0.41,1.36-0.28,1.77,0.29l10.35,14.43c0.18,0.26,0.27,0.57,0.23,0.89l-1.06,8.9
					C324.93,176.01,324.39,176.48,323.76,176.48z"/>
				<path class="st18" d="M337.9,168.33c-0.32,0-0.65-0.12-0.89-0.37l-38.61-38.61c-0.49-0.49-0.49-1.29,0-1.79
					c0.49-0.49,1.29-0.49,1.79,0l38.61,38.61c0.49,0.49,0.49,1.29,0,1.79C338.55,168.21,338.22,168.33,337.9,168.33z"/>
				<path class="st18" d="M332.71,134.91c-0.17,0-0.34-0.03-0.5-0.1c-0.64-0.28-0.94-1.02-0.66-1.66c0.11-0.26,2.56-6.27-3.13-10.59
					c-0.56-0.42-0.66-1.22-0.24-1.77c0.42-0.56,1.22-0.67,1.77-0.24c5.84,4.43,5.12,10.84,3.93,13.6
					C333.66,134.63,333.19,134.91,332.71,134.91z"/>
				<path class="st18" d="M344.8,138.44c-0.38,0-0.76-0.17-1.01-0.5c-4.32-5.69-10.34-3.24-10.59-3.13
					c-0.64,0.27-1.38-0.02-1.66-0.67c-0.27-0.64,0.02-1.38,0.66-1.66c2.77-1.19,9.17-1.91,13.6,3.92c0.42,0.56,0.31,1.35-0.24,1.77
					C345.34,138.36,345.07,138.44,344.8,138.44z"/>
			</g>
			<path class="st9" d="M350.59,108.19c-24.83-24.83-65.09-24.84-89.92,0c-24.83,24.83-24.82,65.09,0.01,89.92
				c24.83,24.83,65.09,24.84,89.92,0.01C375.43,173.28,375.42,133.02,350.59,108.19z M267.72,191.06
				c-20.94-20.94-20.93-54.89,0-75.82c20.94-20.94,54.89-20.95,75.83-0.01s20.93,54.89-0.01,75.83
				C322.61,212,288.66,212,267.72,191.06z"/>
		</g>
		<path class="st20" d="M196.56,196.34c-0.82,5.92-4.24,19.49-16.02,50.44l-37.61-7.73c3.35-13.45,5.26-22.39,5.06-47.17
			c-0.05-5.79,4.9-10.39,10.67-9.85c1.79,0.17,3.67,0.39,5.55,0.68c6.39,0.99,11.62,1.86,17.08,3.51c4.29,1.3,8.85,3.03,11.83,4.22
			C195.48,191.38,196.91,193.81,196.56,196.34z"/>
		<path class="st17" d="M197.97,198.74c0.3,2.22,0.69,4.68,1.14,7c0.47,2.35,0.95,4.69,1.54,6.97c0.59,2.29,1.28,4.53,2.08,6.66
			c0.78,2.15,1.71,4.17,2.78,5.94c0.54,0.87,1.11,1.67,1.71,2.35l0.46,0.47c0.16,0.18,0.23,0.21,0.34,0.33
			c0.25,0.2,0.55,0.41,0.91,0.62c1.46,0.85,3.63,1.43,5.83,1.85c4.47,0.78,9.44,1,14.24,1.02l0.7,4.74
			c-5.13,1.29-10.23,2.01-15.73,1.81c-2.75-0.14-5.59-0.48-8.68-1.74c-0.77-0.33-1.55-0.75-2.33-1.27
			c-0.37-0.27-0.83-0.59-1.11-0.85l-0.91-0.82c-1.14-1.12-2.1-2.31-2.96-3.52c-3.3-4.87-5.12-9.96-6.6-15.04
			c-0.72-2.54-1.36-5.09-1.84-7.66c-0.49-2.59-0.91-5.08-1.19-7.83L197.97,198.74z"/>
		<path class="st20" d="M193.86,190.9c7.93,5.3,7.95,18.4,7.95,18.4l-16.23,10.1c0,0-4.5-12.2-3.24-21.43
			C183.06,192.56,188.98,187.63,193.86,190.9z"/>
		<path class="st17" d="M226.86,231.97l10.23-0.42l-5.14,7.81c0,0-5.32-0.71-6.5-4.36L226.86,231.97z"/>
		<path class="st17" d="M240.67,237.44l-0.98,1.41c-0.67,0.97-1.84,1.46-3,1.28l-4.74-0.76l5.14-7.81l2.58,1.48
			C241.23,233.92,241.69,235.96,240.67,237.44z"/>
		<path class="st18" d="M191.5,157.54c0.04,0.76,0.48,1.36,0.97,1.33c0.5-0.03,0.87-0.66,0.83-1.43s-0.48-1.36-0.97-1.33
			C191.83,156.14,191.46,156.78,191.5,157.54z"/>
		<path class="st18" d="M192.11,156.17l1.8-0.62C193.91,155.54,193.05,157.02,192.11,156.17z"/>
		<path class="st21" d="M192.24,159.2c0,0,1.46,3.21,2.97,4.72c-0.96,0.99-2.69,0.65-2.69,0.65L192.24,159.2z"/>
		<path class="st8" d="M192.09,163.41c-2.33,0-4.16-3.26-4.16-7.43c0-4.17,1.83-7.43,4.16-7.43c2.33,0,4.16,3.26,4.16,7.43
			C196.24,160.15,194.42,163.41,192.09,163.41z M192.09,149.09c-2,0-3.62,3.09-3.62,6.9c0,3.8,1.62,6.9,3.62,6.9
			c2,0,3.62-3.09,3.62-6.9C195.71,152.18,194.09,149.09,192.09,149.09z"/>
		<path class="st18" d="M188.6,155.69c0.19,0.02,0.37-0.08,0.45-0.26c0.84-1.9,3.45-2.44,3.47-2.45c0.24-0.05,0.4-0.28,0.35-0.53
			c-0.05-0.24-0.28-0.4-0.53-0.35c-0.13,0.03-3.09,0.65-4.12,2.96c-0.1,0.23,0,0.49,0.23,0.59
			C188.51,155.67,188.56,155.69,188.6,155.69z"/>
		<path class="st17" d="M165.59,156.1c1.06,9.32,1.32,13.29,6.29,17.84c7.48,6.85,18.7,3.5,20.44-5.95
			c1.57-8.51-0.44-22.32-9.78-25.56C173.33,139.24,164.53,146.78,165.59,156.1z"/>
		<path class="st18" d="M188.2,159.63c4.33-6.65,6.52-14.88,2.35-19.75c-4.18-4.86-10.46,0-10.46,0s-16.84-6.11-22.3,0.95
			c-7.91,10.23,2.44,16.71-0.1,19.56c-2.54,2.85-6.03,6.84-2.87,12.77c3.44,6.47,29.66,1.48,33.39,8.92
			C199.19,181.48,193.47,163.6,188.2,159.63z"/>
		<path class="st18" d="M156.48,163.14c-0.06,0-0.13-0.02-0.18-0.07c-0.11-0.1-0.12-0.27-0.02-0.38c0.78-0.88,0.11-2.24-0.82-4.13
			c-1.71-3.46-4.29-8.69,0.91-15.42c0.09-0.12,0.26-0.14,0.37-0.05c0.12,0.09,0.14,0.26,0.05,0.37c-4.99,6.46-2.6,11.31-0.85,14.86
			c0.98,1.99,1.76,3.57,0.74,4.72C156.63,163.11,156.56,163.14,156.48,163.14z"/>
		<path class="st18" d="M192.06,181.01c-0.47,0-0.99-0.06-1.57-0.18c-0.14-0.03-0.24-0.17-0.2-0.32c0.03-0.15,0.18-0.24,0.32-0.2
			c2.34,0.51,3.86-0.11,4.52-1.83c1.8-4.7-3.31-16.09-7.4-18.41c-0.13-0.07-0.17-0.24-0.1-0.36c0.07-0.13,0.23-0.17,0.36-0.1
			c4.33,2.46,9.54,14.08,7.63,19.07C195.18,179.8,194.21,181.01,192.06,181.01z"/>
		<path class="st8" d="M185.97,159.01c-0.12,0-0.23-0.08-0.26-0.2c-0.14-0.57-0.04-1.1,0.31-1.57c1.08-1.44,4.59-2.26,10.41-2.44
			c0.14-0.03,0.27,0.11,0.27,0.26c0,0.15-0.11,0.27-0.26,0.28c-7.05,0.22-9.33,1.34-10,2.23c-0.25,0.34-0.33,0.7-0.22,1.11
			c0.04,0.14-0.05,0.29-0.19,0.32C186.01,159,185.99,159.01,185.97,159.01z"/>
		<path class="st17" d="M187.06,161.05c0.91,1.77,3.09,2.65,4.2,2.82c1.67,0.26,1.21-2.28,0.41-4.65c-0.72-2.13-2.47-4.84-3.98-4
			C186.2,156.05,186.02,159.03,187.06,161.05z"/>
		<path class="st8" d="M97.67,405.95c0.94,0.09,1.81,0.04,2.34-0.35c0.33-0.24,0.51-0.6,0.51-1.04c0-0.27-0.11-0.49-0.32-0.63
			c-1.09-0.75-5.03,0.79-5.48,0.97c-0.09,0.04-0.14,0.12-0.14,0.22c0,0.09,0.07,0.18,0.16,0.2
			C95.53,405.56,96.64,405.85,97.67,405.95z M99.55,404.18c0.17,0.02,0.31,0.06,0.41,0.12c0.09,0.06,0.12,0.14,0.12,0.26
			c0,0.3-0.11,0.53-0.33,0.69c-0.62,0.46-2.18,0.39-4.23-0.17C96.87,404.59,98.65,404.09,99.55,404.18z"/>
		<path class="st8" d="M94.79,405.33c0.03,0,0.06,0,0.09-0.01c1.17-0.39,3.59-2.2,3.53-3.28c-0.02-0.26-0.16-0.59-0.77-0.71
			c-0.45-0.09-0.88,0-1.27,0.26c-1.28,0.87-1.75,3.38-1.77,3.48c-0.01,0.08,0.01,0.16,0.07,0.21
			C94.7,405.31,94.75,405.32,94.79,405.33z M97.41,401.74c0.04,0,0.09,0.01,0.13,0.02c0.4,0.08,0.41,0.25,0.42,0.3
			c0.04,0.65-1.63,2.09-2.84,2.67c0.18-0.73,0.65-2.21,1.49-2.78C96.87,401.78,97.13,401.71,97.41,401.74z"/>
		<polygon class="st17" points="83.86,407.12 93.13,408.93 103.38,386.08 94.11,384.28 		"/>
		<path class="st18" d="M95.51,404.88l-10.01-3.55c-0.36-0.13-0.7,0.04-0.8,0.4l-2.98,7.82c-0.24,0.84,0.34,1.92,1.19,2.2
			c3.5,1.17,7.14,1.74,11.68,2.85c2.79,0.68,7.17,1.63,11.13,1.63c3.88,0,3.39-3.92,1.67-4.28c-7.73-1.59-8.42-3.01-10.47-5.96
			C96.55,405.46,96.05,405.07,95.51,404.88z"/>
		<g class="st22">
			<polygon points="103.37,386.09 98.09,397.86 88.82,396.06 94.1,384.28 			"/>
		</g>
		<path class="st18" d="M142.52,238.69c-13.13,12.21-14.04,52.61-23.55,79.98c-15.29,27.54-29.36,72.05-29.36,72.05l12.77,3.51
			c0,0,19.57-38.79,32.07-65.98c13.81-30.02,32.12-84.55,32.12-84.55S152.58,240.79,142.52,238.69z"/>
		<path class="st22" d="M151.74,259.51c-0.32,7.16,0.27,14.71,1.4,22.16c2.41-6.53,4.64-12.76,6.58-18.19L151.74,259.51z"/>
		<path class="st8" d="M183.96,406.15c0.94,0,1.81-0.15,2.29-0.58c0.31-0.28,0.44-0.64,0.4-1.09c-0.02-0.27-0.16-0.47-0.38-0.6
			c-1.16-0.63-4.93,1.29-5.35,1.51c-0.08,0.04-0.13,0.14-0.12,0.23c0.01,0.09,0.08,0.17,0.18,0.19
			C181.79,405.97,182.92,406.15,183.96,406.15z M185.65,404.19c0.17,0,0.32,0.03,0.42,0.08c0.09,0.05,0.14,0.13,0.15,0.24
			c0.03,0.3-0.06,0.54-0.26,0.72c-0.57,0.52-2.13,0.61-4.22,0.26C183.03,404.87,184.75,404.19,185.65,404.19z"/>
		<path class="st8" d="M181.03,405.81c0.03,0,0.06-0.01,0.09-0.02c1.13-0.51,3.36-2.55,3.18-3.62c-0.04-0.25-0.22-0.57-0.84-0.63
			c-0.46-0.05-0.88,0.08-1.24,0.39c-1.19,0.99-1.41,3.53-1.42,3.64c-0.01,0.08,0.03,0.16,0.09,0.2
			C180.94,405.8,180.99,405.81,181.03,405.81z M183.29,401.98c0.04,0,0.09,0,0.13,0.01c0.41,0.04,0.44,0.2,0.44,0.26
			c0.1,0.64-1.41,2.25-2.56,2.94c0.11-0.74,0.43-2.27,1.2-2.92C182.75,402.08,183,401.98,183.29,401.98z"/>
		<polygon class="st17" points="171.07,407.89 180.42,409.3 184.94,387.84 175.59,386.43 		"/>
		<path class="st18" d="M181.99,405.49l-10.62,0c-0.39,0-0.7,0.27-0.75,0.65l-1.21,8.4c-0.13,0.87,0.62,1.7,1.52,1.68
			c3.7-0.06,5.49-0.28,10.16-0.28c2.87,0,9.44,0.3,13.41,0.3c3.88,0,4.18-3.92,2.53-4.28c-7.41-1.59-10.95-3.79-13.45-5.89
			C183.12,405.7,182.56,405.49,181.99,405.49z"/>
		<g class="st22">
			<polygon points="184.93,387.85 182.61,398.91 173.26,397.5 175.58,386.44 			"/>
		</g>
		<path class="st18" d="M180.53,246.78c0,0,24.47,47.34,21.76,76.05c-2.82,29.86-17.98,73.4-17.98,73.4l-11.39-2.06
			c0,0,8.68-55.09,14.05-75.49c-13.15-30.3-51.47-41.78-33.99-77.55C158.11,242.01,180.53,246.78,180.53,246.78z"/>
		<polygon class="st18" points="171.12,395.43 185.95,397.67 187.56,391.94 171.22,390.66 		"/>
		<polygon class="st18" points="87.92,393.38 102.31,397.58 105.52,391.98 89.05,388.79 		"/>
		<path class="st5" d="M142.82,236.73l-1.65,3.17c-0.19,0.23,0.07,0.56,0.5,0.65l38.7,7.95c0.34,0.07,0.65-0.04,0.72-0.25l1.03-3.3
			c0.07-0.23-0.18-0.49-0.55-0.56l-38.08-7.82C143.21,236.52,142.94,236.58,142.82,236.73z"/>
		<g>
			<path class="st8" d="M147.06,242.04l-1.02-0.21c-0.2-0.04-0.34-0.18-0.3-0.3l1.38-4.28c0.04-0.13,0.24-0.19,0.44-0.15l1.02,0.21
				c0.2,0.04,0.34,0.18,0.3,0.3l-1.38,4.28C147.46,242.01,147.26,242.08,147.06,242.04z"/>
			<path class="st8" d="M177.43,248.28l-1.02-0.21c-0.2-0.04-0.34-0.18-0.3-0.3l1.38-4.28c0.04-0.13,0.24-0.19,0.44-0.15l1.02,0.21
				c0.2,0.04,0.34,0.18,0.3,0.3l-1.38,4.28C177.83,248.25,177.63,248.32,177.43,248.28z"/>
			<path class="st8" d="M162.24,245.16l-1.02-0.21c-0.2-0.04-0.34-0.18-0.3-0.3l1.38-4.28c0.04-0.13,0.24-0.19,0.44-0.15l1.02,0.21
				c0.2,0.04,0.34,0.18,0.3,0.3l-1.38,4.28C162.65,245.13,162.45,245.2,162.24,245.16z"/>
		</g>
	</g>
</g>
</svg>
