<?xml version="1.0" encoding="UTF-8"?>
<svg viewBox="0 0 84 68" version="1.1" xmlns="http://www.w3.org/2000/svg" xmlns:xlink="http://www.w3.org/1999/xlink">
    <title>logo/preside</title>
    <g id="Symbols" stroke="none" stroke-width="1" fill="none" fill-rule="evenodd">
        <g id="sitewide/desktop/header" transform="translate(-102.000000, -16.000000)" fill-rule="nonzero">
            <g id="preside-logo-with-text" transform="translate(102.000000, 16.000000)">
                <g id="Layer_20" transform="translate(5.301476, 5.051429)" fill="#FFFFFF">
                    <path d="M21.447702,29.8953905 C23.3885594,27.1054476 35.9763317,21.2017524 35.9763317,17.5802667 C35.9763317,7.92815238 27.9284329,0.103619048 18.0017428,0.103619048 C8.07505271,0.103619048 0.0271539002,7.92685714 0.0271539002,17.5789714 C0.0271539002,25.9345524 6.06178496,32.9107048 14.1226142,34.6359619 C16.6608573,32.172419 18.218974,31.1919238 21.447702,29.8953905 Z" id="Path"></path>
                </g>
                <g id="Layer_19" fill="#3E5065">
                    <path d="M24.280759,0.101028571 C20.4236121,0.101028571 16.7798173,1.00899048 13.543331,2.61767619 C12.1171047,1.37165714 10.255123,0.608761905 8.21211525,0.608761905 L8.20435699,0.608761905 C3.71879129,0.608761905 0.0814617006,4.2535619 0.0814617006,8.74544762 L3.0645116,21.7535238 C3.0645116,21.7535238 6.46650738,39.118781 2.18136332,60.2169143 C1.2878707,64.622019 5.07260717,67.9067429 9.55817287,67.9067429 L9.56593113,67.9067429 C14.0527899,67.9067429 16.3350105,64.9432381 16.3350105,60.4474667 C16.3350105,57.1459048 16.3350105,47.2386286 16.3350105,47.2386286 C16.3440618,47.241219 16.3544062,47.2438095 16.3634575,47.2464 C16.3466479,47.0288 16.3350105,46.8112 16.3350105,46.5948952 C16.3350105,43.8541714 17.6720169,41.2960762 19.9878566,39.118781 C13.2782572,36.992 8.41641602,30.7062095 8.41641602,23.2819048 C8.41641602,14.1064381 15.8410682,6.66918095 25.0009838,6.66918095 C30.4395221,6.66918095 35.2677442,9.29074286 38.2921715,13.3435429 C40.2873366,11.456381 42.0833732,10.1313524 43.2768517,9.33089524 C38.8443008,3.71215238 31.9860014,0.101028571 24.280759,0.101028571 Z" id="Path"></path>
                </g>
                <g id="Layer_18" transform="translate(26.636683, 9.325714)" fill="#EF4136">
                    <path d="M16.6401687,0.00518095238 C15.4466901,0.805638095 13.6493605,2.13066667 11.6554884,4.01782857 C7.15440618,8.27786667 1.69647224,15.3822476 0.113787772,25.6198095 C2.64815179,24.5797333 5.53551651,23.8064762 8.65304287,23.3777524 C9.81936753,18.0465524 12.0252987,13.6453333 14.4988897,10.1222857 C16.0957976,7.84914286 17.796149,5.94255238 19.3982291,4.38826667 C18.6340408,2.82491429 17.705636,1.36 16.6401687,0.00518095238 Z" id="Path"></path>
                </g>
                <g id="Layer_17" transform="translate(35.170766, 13.600000)" fill="#F7941D">
                    <path d="M10.8628531,0.113980952 C9.26077301,1.66826667 7.56042164,3.57485714 5.9635137,5.848 C3.4899227,9.37104762 1.28269852,13.7735619 0.117666901,19.1034667 C1.28528461,18.9415619 2.48522839,18.8288762 3.71103303,18.7667048 C4.42608573,18.7304381 5.1488967,18.708419 5.88075896,18.708419 C7.9302319,18.708419 9.91763879,18.8560762 11.8209979,19.126781 C12.7830218,16.5129905 13.3092917,13.6893714 13.3092917,10.7401143 C13.3105833,6.92822857 12.428728,3.32358095 10.8628531,0.113980952 Z" id="Path"></path>
                </g>
                <g id="Layer_16" transform="translate(17.197470, 10.880000)" fill="#3E5065">
                    <path d="M10.2292621,5.19260952 C10.2292621,7.99939048 7.95867885,10.2725333 5.157948,10.2725333 C2.35721715,10.2725333 0.0866338721,7.99809524 0.0866338721,5.19260952 C0.0866338721,2.38712381 2.35721715,0.113980952 5.157948,0.113980952 C7.95867885,0.113980952 10.2292621,2.38712381 10.2292621,5.19260952 Z" id="Path"></path>
                </g>
                <g id="Layer_15" transform="translate(19.783556, 12.822857)" fill="#FFFFFF">
                    <ellipse id="Oval" cx="1.21804638" cy="1.21622857" rx="1.20123682" ry="1.20198095"></ellipse>
                </g>
            </g>
        </g>
    </g>
</svg>