<svg xmlns="http://www.w3.org/2000/svg" fill="none" viewBox="70.82 350.57 311.21 142.71">
<path fill-rule="evenodd" clip-rule="evenodd" d="M179.357 354.391C179.357 352.378 180.994 350.892 182.923 350.892C184.839 350.892 186.472 352.378 186.472 354.391C186.472 356.423 184.839 357.908 182.923 357.908C180.994 357.908 179.357 356.423 179.357 354.391ZM182.923 357.326C184.515 357.326 185.764 356.079 185.764 354.391C185.764 352.732 184.515 351.479 182.923 351.479C181.318 351.479 180.066 352.732 180.066 354.391C180.066 356.079 181.318 357.326 182.923 357.326ZM182.18 356.423H181.572V352.378H183.111C184.068 352.378 184.539 352.732 184.539 353.527C184.539 354.253 184.08 354.568 183.489 354.643L184.646 356.423H183.954L182.882 354.668H182.18V356.423ZM182.913 354.149C183.439 354.149 183.898 354.114 183.898 353.492C183.898 352.989 183.448 352.897 183.014 352.897H182.18V354.149H182.913Z" fill="black"/>
<path fill-rule="evenodd" clip-rule="evenodd" d="M252.765 408.989C254.118 409.826 256.1 410.519 258.187 410.519C261.278 410.519 263.085 408.888 263.085 406.523C263.085 404.333 261.836 403.087 258.671 401.866C254.851 400.513 252.489 398.532 252.489 395.231C252.489 391.583 255.512 388.87 260.065 388.87C262.458 388.87 264.196 389.427 265.24 390.017L264.406 392.486C263.642 392.069 262.078 391.373 259.957 391.373C256.761 391.373 255.546 393.284 255.546 394.882C255.546 397.073 256.972 398.149 260.202 399.399C264.161 400.928 266.177 402.841 266.177 406.28C266.177 409.896 263.503 413.054 257.979 413.054C255.716 413.054 253.249 412.363 252 411.529L252.765 408.989Z" fill="black"/>
<path fill-rule="evenodd" clip-rule="evenodd" d="M287.373 404.125C287.373 410.349 283.067 413.054 279.001 413.054C274.448 413.054 270.938 409.722 270.938 404.405C270.938 398.773 274.622 395.474 279.278 395.474C284.108 395.474 287.373 398.984 287.373 404.125ZM274.03 404.301C274.03 407.982 276.148 410.764 279.14 410.764C282.056 410.764 284.249 408.017 284.249 404.232C284.249 401.382 282.821 397.77 279.206 397.77C275.594 397.77 274.03 401.105 274.03 404.301Z" fill="black"/>
<path fill-rule="evenodd" clip-rule="evenodd" d="M292.971 412.673H296.028V388H292.971V412.673Z" fill="black"/>
<path fill-rule="evenodd" clip-rule="evenodd" d="M316.983 408.089C316.983 409.826 317.014 411.355 317.121 412.673H314.409L314.235 409.933H314.167C313.368 411.286 311.597 413.054 308.605 413.054C305.968 413.054 302.803 411.597 302.803 405.693V395.855H305.86V405.169C305.86 408.366 306.833 410.519 309.615 410.519C311.662 410.519 313.091 409.096 313.645 407.739C313.818 407.29 313.925 406.73 313.925 406.176V395.855H316.983V408.089Z" fill="black"/>
<path fill-rule="evenodd" clip-rule="evenodd" d="M327.476 391.825V395.855H331.852V398.185H327.476V407.252C327.476 409.338 328.064 410.519 329.766 410.519C330.603 410.519 331.091 410.448 331.54 410.311L331.676 412.605C331.091 412.847 330.15 413.054 328.97 413.054C327.541 413.054 326.4 412.57 325.666 411.736C324.798 410.833 324.486 409.338 324.486 407.357V398.185H321.878V395.855H324.486V392.762L327.476 391.825Z" fill="black"/>
<path fill-rule="evenodd" clip-rule="evenodd" d="M340.432 391.128C340.473 392.173 339.705 393.006 338.49 393.006C337.414 393.006 336.647 392.173 336.647 391.128C336.647 390.052 337.446 389.218 338.556 389.218C339.705 389.218 340.432 390.052 340.432 391.128ZM340.089 412.673H337.03V395.855H340.089V412.673Z" fill="black"/>
<path fill-rule="evenodd" clip-rule="evenodd" d="M362.118 404.125C362.118 410.349 357.808 413.054 353.743 413.054C349.194 413.054 345.683 409.722 345.683 404.405C345.683 398.773 349.366 395.474 354.024 395.474C358.853 395.474 362.118 398.984 362.118 404.125ZM348.778 404.301C348.778 407.982 350.893 410.764 353.882 410.764C356.798 410.764 358.994 408.017 358.994 404.232C358.994 401.382 357.566 397.77 353.954 397.77C350.339 397.77 348.778 401.105 348.778 404.301Z" fill="black"/>
<path fill-rule="evenodd" clip-rule="evenodd" d="M367.716 400.406C367.716 398.671 367.678 397.247 367.574 395.855H370.286L370.456 398.635H370.526C371.363 397.036 373.307 395.474 376.088 395.474C378.413 395.474 382.028 396.863 382.028 402.634V412.673H378.97V402.98C378.97 400.268 377.963 398.01 375.078 398.01C373.065 398.01 371.501 399.434 370.978 401.139C370.84 401.52 370.768 402.042 370.768 402.565V412.673H367.716V400.406Z" fill="black"/>
<path fill-rule="evenodd" clip-rule="evenodd" d="M252 442.452C253.459 442.21 255.373 442 257.801 442C260.787 442 262.98 442.696 264.371 443.947C265.651 445.059 266.42 446.763 266.42 448.847C266.42 450.967 265.796 452.632 264.613 453.849C263.015 455.555 260.407 456.423 257.453 456.423C256.552 456.423 255.715 456.385 255.02 456.215V465.594H252V442.452ZM255.02 453.749C255.684 453.918 256.518 453.988 257.525 453.988C261.174 453.988 263.396 452.217 263.396 448.986C263.396 445.892 261.206 444.398 257.868 444.398C256.552 444.398 255.542 444.504 255.02 444.642V453.749Z" fill="black"/>
<path fill-rule="evenodd" clip-rule="evenodd" d="M283.028 461.565C283.028 463.024 283.1 464.45 283.308 465.594H280.527L280.288 463.477H280.184C279.243 464.798 277.434 465.975 275.037 465.975C271.632 465.975 269.892 463.58 269.892 461.149C269.892 457.083 273.507 454.86 280.004 454.894V454.547C280.004 453.154 279.621 450.654 276.185 450.654C274.621 450.654 272.985 451.137 271.805 451.905L271.11 449.888C272.498 448.986 274.517 448.395 276.634 448.395C281.779 448.395 283.028 451.905 283.028 455.275V461.565ZM280.077 457.012C276.739 456.946 272.954 457.531 272.954 460.799C272.954 462.782 274.275 463.719 275.835 463.719C278.029 463.719 279.415 462.332 279.904 460.903C280.004 460.588 280.077 460.245 280.077 459.928V457.012Z" fill="black"/>
<path fill-rule="evenodd" clip-rule="evenodd" d="M289.705 454.026C289.705 452.043 289.664 450.342 289.562 448.776H292.237L292.34 452.078H292.479C293.244 449.819 295.09 448.395 297.138 448.395C297.485 448.395 297.727 448.428 298.007 448.499V451.383C297.693 451.315 297.381 451.279 296.962 451.279C294.81 451.279 293.278 452.911 292.863 455.208C292.796 455.623 292.724 456.108 292.724 456.631V465.594H289.705V454.026Z" fill="black"/>
<path fill-rule="evenodd" clip-rule="evenodd" d="M307.32 444.746V448.776H311.7V451.106H307.32V460.173C307.32 462.259 307.909 463.44 309.611 463.44C310.445 463.44 310.931 463.369 311.382 463.232L311.523 465.526C310.931 465.768 309.994 465.975 308.811 465.975C307.386 465.975 306.241 465.491 305.511 464.657C304.642 463.754 304.332 462.259 304.332 460.278V451.106H301.722V448.776H304.332V445.683L307.32 444.746Z" fill="black"/>
<path fill-rule="evenodd" clip-rule="evenodd" d="M316.876 453.327C316.876 451.592 316.84 450.168 316.734 448.776H319.446L319.622 451.556H319.688C320.521 449.957 322.469 448.395 325.248 448.395C327.579 448.395 331.191 449.784 331.191 455.555V465.594H328.132V455.901C328.132 453.189 327.123 450.931 324.24 450.931C322.227 450.931 320.66 452.355 320.138 454.06C320 454.441 319.933 454.963 319.933 455.486V465.594H316.876V453.327Z" fill="black"/>
<path fill-rule="evenodd" clip-rule="evenodd" d="M339.597 457.741C339.67 461.875 342.312 463.58 345.364 463.58C347.557 463.58 348.873 463.197 350.021 462.709L350.542 464.899C349.47 465.387 347.627 465.975 344.949 465.975C339.773 465.975 336.68 462.535 336.68 457.464C336.68 452.389 339.67 448.395 344.568 448.395C350.058 448.395 351.518 453.226 351.518 456.317C351.518 456.946 351.449 457.43 351.415 457.741H339.597ZM348.564 455.555C348.598 453.604 347.765 450.584 344.326 450.584C341.23 450.584 339.877 453.434 339.634 455.555H348.564Z" fill="black"/>
<path fill-rule="evenodd" clip-rule="evenodd" d="M357.042 454.026C357.042 452.043 357.008 450.342 356.905 448.776H359.579L359.685 452.078H359.824C360.586 449.819 362.426 448.395 364.48 448.395C364.824 448.395 365.069 448.428 365.349 448.499V451.383C365.038 451.315 364.72 451.279 364.301 451.279C362.15 451.279 360.624 452.911 360.205 455.208C360.136 455.623 360.063 456.108 360.063 456.631V465.594H357.042V454.026Z" fill="black"/>
<path fill-rule="evenodd" clip-rule="evenodd" d="M226.46 493.285H228.942V350.573H226.46V493.285Z" fill="black"/>
<path fill-rule="evenodd" clip-rule="evenodd" d="M84.7012 480.258L83.4912 473.074C83.1455 471 82.7012 467.772 82.3662 465.536H82.2354C81.8789 467.789 81.3848 471.113 81.0176 473.087L79.7178 480.258H84.7012ZM79.0684 484.93L77.4922 492.892H71.6709L78.9297 459.756H86.0615L92.6523 492.892H86.8057L85.2607 484.93H79.0684Z" fill="#21211F"/>
<path fill-rule="evenodd" clip-rule="evenodd" d="M105.896 478.087C105.896 477.65 105.896 477.134 105.812 476.661C105.582 475.025 104.705 473.551 103.311 473.551C100.909 473.551 100.027 477.012 100.027 481.058C100.027 485.709 101.281 488.356 103.222 488.356C104.114 488.356 105.136 487.9 105.696 485.949C105.825 485.56 105.896 485.039 105.896 484.432V478.087ZM111.869 458.873V486.024C111.869 488.176 111.985 490.822 112.066 492.892H106.91L106.573 490.131H106.448C105.582 491.834 103.696 493.285 101.447 493.285C96.501 493.285 94.0557 487.83 94.0557 480.944C94.0557 472.567 97.707 468.484 101.689 468.484C103.773 468.484 105.122 469.504 105.799 470.979H105.896V458.873H111.869Z" fill="#21211F"/>
<path fill-rule="evenodd" clip-rule="evenodd" d="M124.311 488.701C126.588 488.701 127.152 484.404 127.152 480.848C127.152 477.467 126.588 473.061 124.208 473.061C121.689 473.061 121.16 477.467 121.16 480.848C121.16 484.93 121.829 488.701 124.263 488.701H124.311ZM124.198 493.285C118.697 493.285 115.242 488.858 115.242 480.957C115.242 472.321 119.668 468.484 124.332 468.484C129.764 468.484 133.173 473.121 133.173 480.813C133.173 490.7 127.837 493.285 124.247 493.285H124.198Z" fill="#21211F"/>
<path fill-rule="evenodd" clip-rule="evenodd" d="M142.483 484.321C142.483 484.917 142.588 485.477 142.719 485.853C143.314 487.865 144.334 488.356 145.148 488.356C147.453 488.356 148.39 485.428 148.39 480.747C148.39 476.49 147.401 473.551 145.121 473.551C143.984 473.551 143.034 474.78 142.702 476.106C142.588 476.518 142.483 477.164 142.483 477.615V484.321ZM136.511 458.873H142.483V471.385H142.579C143.752 469.535 145.318 468.484 147.594 468.484C152.1 468.484 154.357 473.604 154.357 480.297C154.357 488.754 150.98 493.285 146.617 493.285C144.53 493.285 143.148 492.358 141.896 490.014H141.77L141.433 492.892H136.31C136.393 490.897 136.511 488.176 136.511 486.024V458.873Z" fill="#21211F"/>
<path fill-rule="evenodd" clip-rule="evenodd" d="M168.669 478.595C168.7 475.222 167.711 472.859 165.82 472.859C163.659 472.859 162.74 476.018 162.671 478.595H168.669ZM162.653 482.821C162.723 487.161 165.007 488.574 167.834 488.574C169.636 488.574 171.176 488.176 172.314 487.747L173.119 492.043C171.535 492.731 169.094 493.15 166.748 493.15C160.334 493.15 156.838 488.775 156.838 481.295C156.838 473.267 160.895 468.441 166.201 468.441C171.325 468.441 174.16 472.702 174.16 479.667C174.16 481.25 174.095 482.152 173.994 482.852L162.653 482.821Z" fill="#21211F"/>
<path fill-rule="evenodd" clip-rule="evenodd" d="M135.964 350.573H174.16V442.029L135.964 350.573Z" fill="#E1252C"/>
<path fill-rule="evenodd" clip-rule="evenodd" d="M109.047 350.573H70.8164V442.029L109.047 350.573Z" fill="#E1252C"/>
<path fill-rule="evenodd" clip-rule="evenodd" d="M122.506 384.281L146.85 442.029H130.898L123.617 423.629H105.799L122.506 384.281Z" fill="#E1252C"/>
</svg>